HIERARCHY
ROOT Hips
{
	OFFSET 0.00 0.00 0.00
	CHANNELS 6 Xposition Yposition Zposition Xrotation Yrotation Zrotation
	JOINT Spine
	{
		OFFSET 0.00000 6.86429 0.00000
		CHANNELS 3 Xrotation Yrotation Zrotation
		JOINT Head
		{
			OFFSET 0.00000 15.39383 0.00000
			CHANNELS 3 Xrotation Yrotation Zrotation
			End Site
			{
				OFFSET 0.00000 4.52755 0.00000
			}
		}
		JOINT LeftShoulder
		{
			OFFSET 0.00000 9.31483 0.00000
			CHANNELS 3 Xrotation Yrotation Zrotation
			JOINT LeftArm
			{
				OFFSET 8.27540 0.00000 0.00000
				CHANNELS 3 Xrotation Yrotation Zrotation
				JOINT LeftForeArm
				{
					OFFSET 12.00220 0.00000 0.00000
					CHANNELS 3 Yrotation Zrotation Xrotation
					JOINT LeftHand
					{
						OFFSET 10.14463 0.00000 0.00000
						CHANNELS 3 Xrotation Yrotation Zrotation
						JOINT LeftHandThumb1
						{
							OFFSET 0.00000 0.00000 0.00000
							CHANNELS 3 Xrotation Zrotation Yrotation
							End Site
							{
								OFFSET 0.00000 0.00000 3.93700
							}
						}
						End Site
						{
							OFFSET 3.93700 0.00000 0.00000
						}
					}
				}
			}
		}
		JOINT RightShoulder
		{
			OFFSET 0.00000 9.31483 0.00000
			CHANNELS 3 Xrotation Yrotation Zrotation
			JOINT RightArm
			{
				OFFSET -8.27540 0.00000 0.00000
				CHANNELS 3 Xrotation Yrotation Zrotation
				JOINT RightForeArm
				{
					OFFSET -12.00220 0.00000 0.00000
					CHANNELS 3 Yrotation Zrotation Xrotation
					JOINT RightHand
					{
						OFFSET -10.14463 0.00000 0.00000
						CHANNELS 3 Xrotation Yrotation Zrotation
						JOINT RightHandThumb1
						{
							OFFSET 0.00000 0.00000 0.00000
							CHANNELS 3 Xrotation Zrotation Yrotation
							End Site
							{
								OFFSET 0.00000 0.00000 3.93700
							}
						}
						End Site
						{
							OFFSET -3.93700 0.00000 0.00000
						}
					}
				}
			}
		}
	}
	JOINT LeftUpLeg
	{
		OFFSET 4.11738 0.00000 0.00000
		CHANNELS 3 Xrotation Yrotation Zrotation
		JOINT LeftLeg
		{
			OFFSET 0.00000 -19.39432 0.00000
			CHANNELS 3 Xrotation Yrotation Zrotation
			JOINT LeftFoot
			{
				OFFSET 0.00000 -17.60956 0.00000
				CHANNELS 3 Xrotation Yrotation Zrotation
				JOINT LeftToeBase
				{
					OFFSET 0.00000 -1.57501 5.87804
					CHANNELS 3 Xrotation Yrotation Zrotation
					End Site
					{
						OFFSET 0.00000 0.00000 2.95275
					}
				}
			}
		}
	}
	JOINT RightUpLeg
	{
		OFFSET -4.11738 0.00000 0.00000
		CHANNELS 3 Xrotation Yrotation Zrotation
		JOINT RightLeg
		{
			OFFSET 0.00000 -19.39432 0.00000
			CHANNELS 3 Xrotation Yrotation Zrotation
			JOINT RightFoot
			{
				OFFSET 0.00000 -17.60956 0.00000
				CHANNELS 3 Xrotation Yrotation Zrotation
				JOINT RightToeBase
				{
					OFFSET 0.00000 -1.57501 5.87804
					CHANNELS 3 Xrotation Yrotation Zrotation
					End Site
					{
						OFFSET 0.00000 0.00000 2.95275
					}
				}
			}
		}
	}
}
MOTION
Frames: 22
Frame Time: 0.008333
 -2.4811 39.8472 -9.8863 10.8271 10.9750 1.5677 -18.3703 -26.8051 -15.2424 6.4640 -51.2493 8.5417 11.9277 6.9518 4.4128 -12.6518 -49.3376 -80.3327 -15.4321 -0.0000 11.2913 -1.2274 -11.1201 -6.3389 33.1476 -0.0000 26.2537 -22.7595 -2.0288 -44.5761 -37.9783 8.7736 4.6229 76.3389 0.0000 9.5513 -0.0191 -0.0486 -21.4460 32.8623 0.0000 -24.3270 -4.2246 13.7574 -2.9981 0.5343 0.0000 0.0000 -5.1479 7.5094 -14.9587 11.3460 0.0000 0.0000 -8.5408 0.4278 -0.3641 6.2794 0.0000 0.0000 -12.5136 -27.9356 6.0689 12.5543 0.0000 -0.0000
 -2.4867 39.8470 -9.8987 10.7238 10.6854 1.6215 -18.2379 -26.9142 -15.3883 6.7986 -51.1083 8.8248 11.9531 7.0053 4.4399 -12.6358 -49.3269 -80.3012 -15.4805 -0.0000 11.3099 -1.1768 -11.0234 -6.1317 33.1476 -0.0000 26.2537 -22.7168 -2.0933 -44.5226 -37.7026 8.6000 4.5512 76.4607 0.0000 9.6032 -0.0244 -0.0622 -21.4618 32.8623 0.0000 -24.3270 -4.0915 13.9642 -3.0100 0.5084 -0.0000 0.0000 -5.1499 7.5819 -14.9283 11.3219 -0.0000 -0.0000 -8.5190 0.5922 -0.3567 6.3477 -0.0000 -0.0000 -12.4916 -27.8047 6.0630 12.5762 -0.0000 0.0000
 -2.4912 39.8461 -9.9087 10.5672 10.4035 1.6852 -18.0345 -27.0116 -15.5463 7.1056 -51.0071 9.0839 11.9633 6.9852 4.4880 -12.5840 -49.2326 -80.2623 -15.5420 -0.0000 11.3213 -1.1616 -10.9584 -6.0886 33.1476 -0.0000 26.2537 -22.6815 -2.1939 -44.4692 -37.4379 8.4309 4.5107 76.5788 0.0000 9.5892 -0.0125 -0.0317 -21.5290 32.8623 0.0000 -24.3270 -3.8977 14.1459 -3.0255 0.4730 0.0000 -0.0000 -5.1573 7.6643 -14.8993 11.3170 0.0000 -0.0000 -8.4325 0.7399 -0.3527 6.3983 -0.0000 -0.0000 -12.4636 -27.6733 6.0547 12.5407 -0.0000 0.0000
 -2.4999 39.8467 -9.9242 10.5152 10.1311 1.7179 -17.9566 -27.0998 -15.6845 7.4103 -50.9173 9.3488 11.9674 7.0032 4.5152 -12.5466 -49.2333 -80.2534 -15.5350 -0.0000 11.1302 -1.1914 -11.0753 -6.1790 33.1476 -0.0000 26.2537 -22.6277 -2.2884 -44.4296 -37.1164 8.3024 4.4353 76.6754 0.0000 9.9020 -0.0651 -0.1630 -21.7865 32.8623 0.0000 -24.3270 -3.8344 14.3090 -3.0243 0.4626 -0.0000 -0.0000 -5.1651 7.7717 -14.8770 11.2988 0.0000 -0.0000 -8.4635 0.9050 -0.3337 6.4648 -0.0000 -0.0000 -12.4305 -27.5798 6.0938 12.5088 0.0000 -0.0000
 -2.5061 39.8482 -9.9399 10.4756 9.8646 1.7410 -17.9396 -27.1861 -15.8274 7.7185 -50.7417 9.5363 12.0221 6.9609 4.5336 -12.4779 -49.1475 -80.2093 -15.5759 -0.0000 11.2414 -1.2044 -11.1039 -6.2302 33.1476 -0.0000 26.2537 -22.4172 -2.4202 -44.3443 -36.9220 8.1783 4.2715 76.7743 0.0000 9.9082 -0.0609 -0.1519 -21.8464 32.8623 0.0000 -24.3270 -3.7875 14.4565 -3.0189 0.4578 -0.0000 0.0000 -5.1763 7.8751 -14.8204 11.3148 -0.0000 0.0000 -8.5037 1.0338 -0.3130 6.5218 0.0000 -0.0000 -12.3756 -27.4630 6.1155 12.2565 -0.0000 -0.0000
 -2.5125 39.8473 -9.9534 10.3467 9.5436 1.8007 -17.7042 -27.2208 -15.9594 7.9478 -50.7145 9.8103 11.9500 6.9821 4.6017 -12.4271 -49.1168 -80.1971 -15.5995 -0.0000 11.3872 -1.1809 -11.1156 -6.1028 33.1476 -0.0000 26.2537 -22.6414 -2.2981 -44.3254 -36.3253 7.9589 4.1939 76.9253 0.0000 10.0242 -0.0759 -0.1898 -21.7899 32.8623 0.0000 -24.3270 -3.6270 14.6388 -3.0341 0.4303 -0.0000 0.0000 -5.1811 7.9988 -14.8172 11.2905 -0.0000 0.0000 -8.4567 1.2463 -0.3037 6.5881 0.0000 -0.0000 -12.3611 -27.3447 6.1385 12.5409 -0.0000 -0.0000
 -2.5206 39.8470 -9.9665 10.2057 9.2297 1.8627 -17.5039 -27.2884 -16.1299 8.2519 -50.6063 10.1285 11.8679 7.0223 4.6694 -12.3354 -49.1091 -80.1714 -15.6114 -0.0000 11.3592 -1.2273 -11.0650 -6.3693 33.1476 -0.0000 26.2537 -22.6881 -2.3177 -44.2459 -35.9526 7.8199 4.1106 77.0285 0.0000 10.1561 -0.1030 -0.2590 -21.6795 32.8623 0.0000 -24.3270 -3.4622 14.8195 -3.0452 0.4177 -0.0000 0.0000 -5.1920 8.1131 -14.7845 11.2743 0.0000 -0.0000 -8.3935 1.4467 -0.2942 6.6441 0.0000 -0.0000 -12.3323 -27.2359 6.1463 12.5437 0.0000 -0.0000
 -2.5273 39.8465 -9.9799 10.0780 8.9297 1.9073 -17.3265 -27.3385 -16.2756 8.5531 -50.4897 10.4259 11.9020 7.0366 4.7128 -12.3419 -49.1182 -80.1544 -15.6018 -0.0000 11.3293 -1.1727 -11.0262 -6.1091 33.1476 -0.0000 26.2537 -22.6962 -2.3733 -44.1916 -35.6048 7.7090 4.0375 77.1008 0.0000 10.2193 -0.1055 -0.2661 -21.6214 32.8623 0.0000 -24.3270 -3.3126 14.9720 -3.0466 0.3999 -0.0000 -0.0000 -5.2043 8.2328 -14.7540 11.2419 -0.0000 0.0000 -8.3435 1.6089 -0.2739 6.7003 0.0000 0.0000 -12.2949 -27.1121 6.1424 12.5106 -0.0000 -0.0000
 -2.5351 39.8473 -9.9953 10.0381 8.6418 1.9276 -17.2730 -27.3473 -16.4010 8.8541 -50.4006 10.6394 11.9650 6.9794 4.7514 -12.3403 -49.0783 -80.1625 -15.5841 -0.0000 11.2044 -1.1991 -11.0897 -6.2104 33.1476 -0.0000 26.2537 -22.6199 -2.4652 -44.1905 -35.3179 7.5832 3.9838 77.1633 0.0000 10.3055 -0.1138 -0.2880 -21.5625 32.8623 0.0000 -24.3270 -3.2672 15.1139 -3.0365 0.3998 0.0000 -0.0000 -5.2238 8.3643 -14.6843 11.2419 0.0000 0.0000 -8.3851 1.7745 -0.2427 6.7637 0.0000 -0.0000 -12.2537 -27.0078 6.1636 12.5619 -0.0000 0.0000
 -2.5417 39.8474 -10.0095 9.9899 8.3624 1.9643 -17.2356 -27.3728 -16.5587 9.1398 -50.2030 10.8780 11.9811 6.9527 4.7890 -12.2819 -49.0162 -80.1561 -15.5801 -0.0000 11.2105 -1.1914 -11.1330 -6.1476 33.1476 -0.0000 26.2537 -22.4549 -2.6235 -44.1515 -35.1212 7.5016 3.8901 77.1895 0.0000 10.3406 -0.1114 -0.2815 -21.5888 32.8623 0.0000 -24.3270 -3.2032 15.2422 -3.0454 0.3930 0.0000 -0.0000 -5.2316 8.5000 -14.6327 11.2064 0.0000 -0.0000 -8.4116 1.9213 -0.2313 6.8189 0.0000 0.0000 -12.2275 -26.8857 6.2049 12.5837 -0.0000 -0.0000
 -2.5499 39.8470 -10.0239 9.8918 8.0507 2.0035 -17.0450 -27.3973 -16.6938 9.4306 -50.1050 11.1708 11.9196 6.9872 4.8422 -12.2303 -49.0298 -80.1419 -15.5635 -0.0000 11.2244 -1.2219 -11.1265 -6.3072 33.1476 -0.0000 26.2537 -22.5945 -2.6164 -44.1015 -34.6323 7.4126 3.8123 77.2192 0.0000 10.4153 -0.1429 -0.3594 -21.6853 32.8623 0.0000 -24.3270 -3.0876 15.4063 -3.0440 0.3873 0.0000 -0.0000 -5.2572 8.6288 -14.6316 11.2422 -0.0000 0.0000 -8.3926 2.0978 -0.2074 6.8746 -0.0000 -0.0000 -12.1815 -26.7621 6.1954 12.5625 -0.0000 0.0000
 -2.5543 39.8458 -10.0380 9.8186 7.7863 2.0527 -16.9406 -27.4758 -16.8475 9.5975 -50.0205 11.3688 11.8744 7.0313 4.8713 -12.1414 -49.0612 -80.1112 -15.5686 -0.0000 11.2661 -1.2135 -11.1545 -6.2489 33.1476 -0.0000 26.2537 -22.5434 -2.7742 -44.0816 -34.4123 7.3990 3.7855 77.1895 0.0000 10.4511 -0.1593 -0.3985 -21.7830 32.8623 0.0000 -24.3270 -2.9944 15.5179 -3.0680 0.3746 0.0000 -0.0000 -5.2652 8.7572 -14.5520 11.1963 0.0000 -0.0000 -8.3836 2.2457 -0.2074 6.9138 -0.0000 0.0000 -12.1673 -26.6490 6.1493 12.5160 0.0000 -0.0000
 -2.5603 39.8456 -10.0508 9.7668 7.5057 2.0881 -16.8884 -27.5098 -16.9886 9.7989 -49.9059 11.5200 11.8810 7.0318 4.8915 -12.0533 -49.0009 -80.0817 -15.5886 -0.0000 11.2825 -1.2071 -11.1099 -6.2405 33.1476 -0.0000 26.2537 -22.5094 -2.8248 -44.0719 -34.0823 7.3408 3.7211 77.1995 0.0000 10.4476 -0.1846 -0.4605 -21.8389 32.8623 0.0000 -24.3270 -2.9194 15.6640 -3.0769 0.3618 0.0000 -0.0000 -5.2748 8.8720 -14.5344 11.1745 -0.0000 0.0000 -8.4090 2.3664 -0.1941 6.9781 0.0000 0.0000 -12.1353 -26.5104 6.1712 12.5284 0.0000 0.0000
 -2.5668 39.8454 -10.0638 9.7271 7.2160 2.1254 -16.8330 -27.5282 -17.1261 9.9817 -49.8709 11.6839 11.9142 7.0386 4.9003 -11.9913 -49.0321 -80.0461 -15.5866 -0.0000 11.1825 -1.1859 -11.1087 -6.1325 33.1476 -0.0000 26.2537 -22.4573 -2.9088 -44.0586 -33.8018 7.2731 3.6498 77.2123 0.0000 10.3016 -0.1730 -0.4312 -21.8581 32.8623 0.0000 -24.3270 -2.8498 15.8412 -3.0895 0.3389 -0.0000 0.0000 -5.2790 8.9680 -14.4940 11.1620 0.0000 -0.0000 -8.4445 2.4756 -0.1844 7.0367 0.0000 -0.0000 -12.1087 -26.3472 6.1808 12.5629 -0.0000 0.0000
 -2.5725 39.8459 -10.0763 9.7202 6.9627 2.1390 -16.8591 -27.5849 -17.2378 10.1309 -49.6994 11.7594 12.0158 7.0550 4.8535 -11.9196 -49.0753 -79.9538 -15.5966 -0.0000 11.0913 -1.1838 -11.0869 -6.1333 33.1476 -0.0000 26.2537 -22.4393 -2.9048 -44.0923 -33.5058 7.2168 3.6433 77.2468 0.0000 10.3009 -0.1768 -0.4446 -21.6849 32.8623 0.0000 -24.3270 -2.8252 15.9487 -3.0852 0.3197 0.0000 0.0000 -5.2794 9.1071 -14.4855 11.1711 0.0000 -0.0000 -8.4930 2.6015 -0.1621 7.0659 -0.0000 -0.0000 -12.0553 -26.2259 6.1933 12.2725 0.0000 0.0000
 -2.5784 39.8458 -10.0911 9.6871 6.6790 2.1739 -16.7818 -27.6262 -17.3560 10.2591 -49.7477 11.8602 11.9798 7.0800 4.8488 -11.7836 -49.0692 -79.8867 -15.6334 -0.0000 11.0946 -1.1759 -11.0710 -6.1015 33.1476 -0.0000 26.2537 -22.4755 -2.9924 -44.0616 -33.3037 7.2257 3.6101 77.2619 0.0000 10.4039 -0.2167 -0.5552 -21.3229 32.8623 0.0000 -24.3270 -2.7624 16.0979 -3.0991 0.2919 0.0000 -0.0000 -5.2899 9.2164 -14.4304 11.1872 0.0000 -0.0000 -8.5270 2.7710 -0.1502 7.1075 0.0000 0.0000 -12.0238 -26.1139 6.2161 12.5389 0.0000 -0.0000
 -2.5833 39.8463 -10.1044 9.6746 6.4384 2.1947 -16.8063 -27.6920 -17.4846 10.4173 -49.5642 11.9738 12.0305 7.0662 4.8348 -11.7024 -49.0088 -79.8558 -15.6093 -0.0000 11.0967 -1.1603 -11.0435 -6.0358 33.1476 -0.0000 26.2537 -22.4748 -2.9744 -44.0718 -33.0163 7.2123 3.6054 77.2865 0.0000 10.2025 -0.1763 -0.4445 -21.6358 32.8623 0.0000 -24.3270 -2.7345 16.2050 -3.1019 0.2784 -0.0000 0.0000 -5.2872 9.3278 -14.3964 11.1657 0.0000 0.0000 -8.5668 2.8777 -0.1357 7.1281 -0.0000 -0.0000 -11.9816 -26.0001 6.2214 12.3030 -0.0000 0.0000
 -2.5893 39.8466 -10.1172 9.6416 6.1797 2.2153 -16.7727 -27.7436 -17.6062 10.5746 -49.4917 12.0917 12.0685 7.0887 4.8123 -11.6117 -48.9926 -79.7915 -15.6284 -0.0000 11.0394 -1.1541 -11.0676 -5.9907 33.1476 -0.0000 26.2537 -22.4463 -3.0276 -44.0373 -32.8474 7.2134 3.5841 77.3060 0.0000 10.1925 -0.1727 -0.4366 -21.5760 32.8623 0.0000 -24.3270 -2.6836 16.3477 -3.1003 0.2670 0.0000 -0.0000 -5.2982 9.4283 -14.3820 11.1418 -0.0000 0.0000 -8.5829 3.0419 -0.1123 7.1424 0.0000 -0.0000 -11.9312 -25.9141 6.2634 12.5706 -0.0000 -0.0000
 -2.5956 39.8466 -10.1292 9.5996 5.8816 2.2379 -16.7162 -27.7476 -17.7199 10.7204 -49.4143 12.2344 12.1224 7.1093 4.8060 -11.5347 -49.0481 -79.7158 -15.6400 -0.0000 10.9263 -1.1328 -10.9927 -5.9204 33.1476 -0.0000 26.2537 -22.4593 -3.0584 -44.0117 -32.6395 7.2131 3.5957 77.3271 0.0000 10.2722 -0.1801 -0.4562 -21.5432 32.8623 0.0000 -24.3270 -2.6050 16.5365 -3.1003 0.2332 -0.0000 0.0000 -5.3026 9.5166 -14.3485 11.1373 -0.0000 -0.0000 -8.6003 3.2103 -0.0849 7.1725 -0.0000 -0.0000 -11.8811 -25.8187 6.2910 12.3137 0.0000 -0.0000
 -2.6007 39.8460 -10.1398 9.5505 5.6487 2.2603 -16.6566 -27.7834 -17.8408 10.8398 -49.3656 12.3460 12.1624 7.1082 4.7974 -11.4755 -49.1360 -79.6555 -15.5938 -0.0000 10.8369 -1.1499 -11.0442 -5.9819 33.1476 -0.0000 26.2537 -22.4140 -3.1603 -43.9976 -32.4868 7.2165 3.5707 77.3454 0.0000 10.2970 -0.1652 -0.4182 -21.5529 32.8623 0.0000 -24.3270 -2.5308 16.6604 -3.1040 0.2089 0.0000 -0.0000 -5.3092 9.6105 -14.3415 11.1416 -0.0000 0.0000 -8.5894 3.2832 -0.0700 7.1776 -0.0000 0.0000 -11.8407 -25.6682 6.3154 12.5490 0.0000 -0.0000
 -2.6054 39.8458 -10.1523 9.5041 5.3975 2.2785 -16.6008 -27.8391 -17.9482 10.9536 -49.2902 12.4462 12.2206 7.1428 4.7707 -11.4213 -49.1032 -79.5916 -15.6195 -0.0000 10.7825 -1.1404 -11.0023 -5.9548 33.1476 -0.0000 26.2537 -22.5192 -3.1794 -44.0341 -32.2850 7.2763 3.7262 77.3547 0.0000 10.4900 -0.1847 -0.4679 -21.5362 32.8623 0.0000 -24.3270 -2.4623 16.7959 -3.1022 0.1875 -0.0000 -0.0000 -5.3178 9.7098 -14.3248 11.1284 -0.0000 0.0000 -8.5864 3.4150 -0.0464 7.1813 0.0000 -0.0000 -11.7941 -25.5701 6.3396 12.5805 -0.0000 0.0000
 -2.6083 39.8449 -10.1653 9.4568 5.1259 2.3072 -16.5465 -27.8838 -18.0594 11.0329 -49.1900 12.5389 12.2329 7.1792 4.7642 -11.3422 -49.0881 -79.5609 -15.6296 -0.0000 10.7880 -1.1321 -10.9309 -5.9496 33.1476 -0.0000 26.2537 -22.4869 -3.2440 -44.0211 -32.2481 7.2918 3.7997 77.3842 0.0000 10.6732 -0.1851 -0.4709 -21.4606 32.8623 0.0000 -24.3270 -2.3874 16.9559 -3.1141 0.1688 -0.0000 0.0000 -5.3279 9.7984 -14.2895 11.1110 0.0000 -0.0000 -8.6024 3.5370 -0.0322 7.2242 0.0000 -0.0000 -11.7699 -25.4545 6.3293 12.3574 0.0000 -0.0000
